<svg xmlns="http://www.w3.org/2000/svg" viewBox="31.404998779296875 49.99999999999993 512.1900024414062 475.01304282129337"><rect height="100%" width="100%" x="31.404998779296875" y="49.99999999999993" fill="rgba(255, 255, 255, 1)"/> <g transform="rotate(0 287.5 243.43424746267078)"><svg xmlns="http://www.w3.org/2000/svg" id="Livello_1" dataName="Livello 1" viewBox="219.6699981689453 314.04998779296875 560.6600341796875 371.9000244140625" height="246.8684949253417" width="372.1867028818871" y="119.99999999999993" x="101.40664855905646" preserveAspectRatio="xMinYMin" style="overflow: visible;"><polygon class="cls-1" points="467.37 576.66 436.91 602.21 395.83 636.68 376.26 653.11 356.68 669.53 337.11 685.95 337.11 353.2 258.81 353.2 258.81 547.24 317.54 497.96 317.54 549.07 258.81 598.34 219.67 631.18 219.67 314.05 376.26 314.05 376.26 602 395.83 585.58 406.46 576.66 436.91 551.1 497.82 500 528.27 474.44 672.77 353.2 550.97 353.2 395.83 483.37 395.83 432.26 490.06 353.2 536.71 314.05 780.33 314.05 733.68 353.2 558.73 500 528.27 525.56 467.37 576.66" style="fill: #284389; stroke-width: 0px;"></polygon><polygon class="cls-1" points="733.68 646.8 780.33 685.95 536.71 685.95 490.06 646.8 452.14 614.98 482.59 589.43 550.97 646.8 672.77 646.8 543.5 538.33 573.95 512.78 733.68 646.8" style="fill: #284389; stroke-width: 0px;"></polygon></svg></g> <g transform="rotate(0 287.5 426.1680416005902)"><svg y="397.32304037988706" viewBox="5.320000171661377 35.36000061035156 372.19000244140625 57.69000244140625" x="101.40499877929688" height="57.69000244140625" width="372.19000244140625" xmlns="http://www.w3.org/2000/svg" style="overflow: visible;"><g fill="#303036" style=""><path d="M19.50 69.03L19.50 92.25L5.32 92.25L5.32 36.16L19.50 36.16L19.50 59.64Q19.67 59.64 19.76 59.64L19.76 59.64Q20.65 59.64 21.84 58.22Q23.04 56.80 24.02 55.39L24.02 55.39L35.89 36.16L51.31 36.16L51.31 36.42L41.21 52.73Q39.88 54.94 38.19 57.47Q36.51 59.99 34.87 61.90Q33.23 63.80 31.99 64.25L31.99 64.25L31.99 64.51Q33.23 65.04 34.87 66.77Q36.51 68.50 38.24 70.76Q39.97 73.02 41.56 75.24L41.56 75.24L53.35 91.98L53.35 92.25L37.04 92.25L25.96 75.24L25.96 75.32Q25.43 74.44 24.33 72.98Q23.22 71.51 22.02 70.27Q20.82 69.03 19.94 69.03L19.94 69.03Q19.76 69.03 19.67 69.03Q19.58 69.03 19.50 69.03L19.50 69.03ZM57.25 64.16L57.25 64.16Q57.25 53.44 59.68 47.14Q62.12 40.85 68.10 38.11Q74.08 35.36 84.81 35.36L84.81 35.36Q92.87 35.36 98.19 36.86Q103.50 38.37 106.61 41.74Q109.71 45.11 110.99 50.64Q112.28 56.18 112.28 64.16L112.28 64.16Q112.28 72.22 110.99 77.76Q109.71 83.30 106.61 86.67Q103.50 90.03 98.19 91.54Q92.87 93.05 84.81 93.05L84.81 93.05Q76.74 93.05 71.43 91.54Q66.11 90.03 63.01 86.67Q59.91 83.30 58.58 77.76Q57.25 72.22 57.25 64.16ZM84.81 80.64L84.81 80.64Q90.48 80.64 93.31 79.22Q96.15 77.81 97.12 74.22Q98.10 70.63 98.10 64.16L98.10 64.16Q98.10 57.78 97.12 54.23Q96.15 50.69 93.31 49.23Q90.48 47.76 84.81 47.76L84.81 47.76Q79.22 47.76 76.34 49.23Q73.46 50.69 72.44 54.23Q71.43 57.78 71.43 64.16L71.43 64.16Q71.43 70.63 72.44 74.22Q73.46 77.81 76.34 79.22Q79.22 80.64 84.81 80.64ZM157.47 58.66L157.47 36.16L171.65 36.16L171.65 92.25L157.56 92.25L141.61 68.50Q139.75 65.67 138.51 63.72Q137.27 61.77 136.20 59.82Q135.14 57.87 133.81 55.21L133.81 55.21L133.55 55.56Q134.79 59.82 135.05 63.49Q135.32 67.17 135.32 70.63L135.32 70.63L135.32 92.25L121.14 92.25L121.14 36.16L135.23 36.16L151.18 59.91Q153.04 62.65 154.28 64.65Q155.52 66.64 156.59 68.59Q157.65 70.54 158.98 73.20L158.98 73.20L159.24 72.84Q158.36 69.12 157.92 65.62Q157.47 62.12 157.47 58.66L157.47 58.66ZM223.67 79.76L224.11 80.11L224.11 91.28Q219.86 92.16 215.78 92.60Q211.71 93.05 206.12 93.05L206.12 93.05Q198.95 93.05 194.03 91.81Q189.11 90.57 186.14 87.42Q183.17 84.27 181.84 78.51Q180.51 72.75 180.51 63.72L180.51 63.72Q180.51 55.03 181.84 49.45Q183.17 43.87 186.14 40.81Q189.11 37.75 194.03 36.55Q198.95 35.36 206.12 35.36L206.12 35.36Q211.71 35.36 215.78 35.76Q219.86 36.16 224.11 37.13L224.11 37.13L224.11 48.65L223.85 48.83Q220.12 47.94 216.67 47.54Q213.21 47.14 208.16 47.14L208.16 47.14Q204.08 47.14 201.47 47.72Q198.86 48.30 197.35 49.98Q195.84 51.66 195.27 54.94Q194.69 58.22 194.69 63.72L194.69 63.72Q194.69 69.48 195.27 72.98Q195.84 76.48 197.35 78.25Q198.86 80.02 201.47 80.64Q204.08 81.26 208.16 81.26L208.16 81.26Q213.12 81.26 216.62 80.95Q220.12 80.64 223.67 79.76L223.67 79.76ZM273.29 92.25L231.64 92.25L231.64 36.16L273.29 36.16L273.29 47.68L245.82 47.68L245.82 58.31L269.66 58.31L269.66 69.83L245.82 69.83L245.82 80.73L273.29 80.73L273.29 92.25ZM294.56 78.51L294.56 92.25L280.38 92.25L280.38 36.16L305.37 36.16Q313.79 36.16 318.84 38.19Q323.89 40.23 326.11 44.84Q328.33 49.45 328.33 57.34L328.33 57.34Q328.33 64.78 326.11 69.43Q323.89 74.08 318.84 76.30Q313.79 78.51 305.37 78.51L305.37 78.51L294.56 78.51ZM303.07 47.76L303.07 47.76L294.56 47.76L294.56 66.91L303.07 66.91Q309.36 66.91 311.49 64.78Q313.62 62.65 313.62 57.34L313.62 57.34Q313.62 52.28 311.49 50.02Q309.36 47.76 303.07 47.76ZM361.56 92.25L347.38 92.25L347.38 48.12L331.43 48.12L331.43 36.16L377.51 36.16L377.51 48.12L361.56 48.12L361.56 92.25Z" transform="translate(0, 0)"></path></g></svg></g></svg>